<svg t="1705348877012" class="icon" viewBox="0 0 1024 1024" version="1.1"
  xmlns="http://www.w3.org/2000/svg" p-id="5135" width="200" height="200">
  <path
    d="M352 480h320a31.146667 31.146667 0 0 1 23.04 8.96c5.973333 6.016 8.96 13.696 8.96 23.04a31.146667 31.146667 0 0 1-8.96 23.04 31.146667 31.146667 0 0 1-23.04 8.96h-320a31.146667 31.146667 0 0 1-23.04-8.96 31.146667 31.146667 0 0 1-8.96-23.04 31.146667 31.146667 0 0 1 8.96-23.04 31.146667 31.146667 0 0 1 23.04-8.96z m128 192v-320a31.146667 31.146667 0 0 1 8.96-23.04 31.146667 31.146667 0 0 1 23.04-8.96 31.146667 31.146667 0 0 1 23.04 8.96c5.973333 6.016 8.96 13.696 8.96 23.04v320a31.146667 31.146667 0 0 1-8.96 23.04 31.146667 31.146667 0 0 1-23.04 8.96 31.146667 31.146667 0 0 1-23.04-8.96 31.146667 31.146667 0 0 1-8.96-23.04zM512 896c108.672-2.688 199.168-40.192 271.488-112.512C855.808 711.168 893.312 620.672 896 512c-2.688-108.672-40.192-199.168-112.512-271.488C711.168 168.192 620.672 130.688 512 128c-108.672 2.688-199.168 40.192-271.488 112.512C168.192 312.874667 130.688 403.370667 128 512c2.688 108.672 40.192 199.168 112.512 271.488C312.874667 855.808 403.370667 893.312 512 896z m0 64c-126.677333-3.328-232.192-47.146667-316.501333-131.498667C111.146667 744.192 67.328 638.72 64 512c3.328-126.677333 47.146667-232.192 131.498667-316.501333C279.808 111.146667 385.28 67.328 512 64c126.677333 3.328 232.192 47.146667 316.501333 131.498667C912.853333 279.808 956.672 385.28 960 512c-3.328 126.677333-47.146667 232.192-131.498667 316.501333C744.192 912.853333 638.72 956.672 512 960z"
    fill="#ffffff" fill-opacity=".96" p-id="5136"></path>
</svg>