<svg version="1.0" xmlns="http://www.w3.org/2000/svg"
 width="512.000000pt" height="512.000000pt" viewBox="0 0 512.000000 512.000000"
 preserveAspectRatio="xMidYMid meet">

<g transform="translate(0.000000,512.000000) scale(0.100000,-0.100000)"
fill="#000000" stroke="none">
<path d="M2190 4049 c-608 -91 -1191 -389 -1635 -834 -144 -145 -232 -257
-288 -367 -28 -55 -32 -73 -32 -143 0 -71 4 -88 33 -148 52 -105 143 -220 291
-368 119 -118 270 -250 320 -279 14 -8 8 -25 -46 -132 -75 -148 -83 -186 -51
-247 29 -56 64 -82 119 -88 71 -8 103 21 174 159 33 64 63 120 67 123 3 3 50
-18 104 -48 55 -30 149 -76 209 -102 61 -27 112 -50 114 -52 2 -2 -11 -67 -29
-146 -38 -166 -36 -203 14 -253 39 -39 93 -56 140 -43 40 11 93 67 102 107 18
78 56 227 60 233 2 4 25 1 51 -7 69 -21 295 -61 383 -69 130 -11 117 7 122
-162 4 -164 13 -194 70 -234 39 -29 111 -31 150 -5 15 10 38 34 50 54 20 33
23 54 28 187 l5 150 80 7 c135 12 393 59 457 83 11 4 21 -24 43 -117 16 -68
37 -139 48 -159 64 -119 246 -79 264 59 3 24 -8 87 -30 176 l-35 138 41 16
c23 9 121 55 216 104 96 48 177 86 179 84 2 -2 31 -57 65 -122 74 -140 105
-169 176 -161 55 6 90 32 119 88 33 62 25 101 -50 246 -34 67 -60 123 -58 125
3 2 46 35 95 73 119 91 357 329 433 433 34 45 76 112 94 149 29 60 33 77 33
148 0 71 -4 87 -33 145 -59 114 -143 220 -287 365 -458 458 -1056 757 -1680
840 -163 22 -534 19 -695 -6z" fill="#c0c4cc"/>
</g>
</svg>
